{"asset":{"version":"2.0","generator":"THREE.GLTFExporter"},"scenes":[{"name":"AuxScene","nodes":[0]}],"scene":0,"nodes":[{"mesh":0}],"bufferViews":[{"buffer":0,"byteOffset":0,"byteLength":6120,"target":34962,"byteStride":12},{"buffer":0,"byteOffset":6120,"byteLength":6120,"target":34962,"byteStride":12}],"buffers":[{"byteLength":12240,"uri":"data:application/octet-stream;base64,"}],"accessors":[{"bufferView":0,"componentType":5126,"count":510,"max":[12.25,1.600000023841858,19.75],"min":[-2.25,0.10000000149011612,-3.75],"type":"VEC3"},{"bufferView":1,"componentType":5126,"count":510,"max":[0,1,0],"min":[0,1,0],"type":"VEC3"}],"materials":[{"pbrMetallicRoughness":{"baseColorFactor":[0.5019607843137255,0.5019607843137255,0.5019607843137255,1],"metallicFactor":0,"roughnessFactor":1}}],"meshes":[{"primitives":[{"mode":4,"attributes":{"POSITION":0,"NORMAL":1},"material":0}]}]}